<svg width="20" height="20" viewBox="0 0 20 20" fill="none" xmlns="http://www.w3.org/2000/svg">
<path fill-rule="evenodd" clip-rule="evenodd" d="M10 1C5 1 1 5 1 10C1 15 5 19 10 19C15 19 19 15 19 10C19 5 15 1 10 1ZM9.2 5H10.7V12H9.2V5ZM10 16C9.4 16 9 15.6 9 15C9 14.4 9.4 14 10 14C10.6 14 11 14.4 11 15C11 15.6 10.6 16 10 16Z" fill="#F1C21B"/>
<path opacity="0.01" fill-rule="evenodd" clip-rule="evenodd" d="M9.2 5H10.7V12H9.2V5ZM10 16C9.4 16 9 15.6 9 15C9 14.4 9.4 14 10 14C10.6 14 11 14.4 11 15C11 15.6 10.6 16 10 16Z" fill="#F1C21B"/>
</svg>
