<svg width="16" height="14" viewBox="0 0 16 14" fill="none" xmlns="http://www.w3.org/2000/svg">
<path fill-rule="evenodd" clip-rule="evenodd" d="M2.6 10.3L3.3 9.6C2.6 8.8 1.9 8 1.5 7C2.5 4.5 5.3 2.5 8 2.5C8.7 2.5 9.4 2.6 10 2.9L10.8 2.1C9.9 1.7 9 1.5 8 1.5C4.7 1.6 1.7 3.7 0.5 6.8V7.1C1 8.3 1.7 9.4 2.6 10.3ZM12.6 3.1C13.9 4 14.9 5.3 15.5 6.8V7.2C14.3 10.3 11.3 12.4 8 12.5C6.7 12.4 5.4 12.1 4.3 11.4L1.7 14L1 13.3L14.3 0L15 0.7L12.6 3.1ZM7.8 5.1C6.9 5.1 6.1 5.9 6 6.9L5.1 7.8C5 7.3 5 6.7 5.1 6.2C5.5 4.6 7.2 3.7 8.7 4.2L7.8 5.1ZM10 7C10 8.1 9.1 9 8 9C7.7 9 7.3 8.9 7 8.7L9.7 6C9.9 6.3 10 6.6 10 7ZM5 10.7C5.9 11.2 7 11.5 8 11.5C10.6 11.5 13.4 9.5 14.5 7C13.9 5.7 13 4.6 11.9 3.8L10.5 5.2C11.2 6.2 11.2 7.6 10.5 8.6C9.5 10 7.7 10.3 6.3 9.4L5 10.7Z" fill="#161616"/>
</svg>
