<svg width="18" height="18" viewBox="0 0 18 18" fill="none" xmlns="http://www.w3.org/2000/svg">
<path fill-rule="evenodd" clip-rule="evenodd" d="M17.7501 16.8686L13.0314 12.1249C15.3747 9.29747 15.0823 5.12762 12.3673 2.65493C9.65231 0.182235 5.47336 0.279774 2.87669 2.87644C0.280018 5.47311 0.18248 9.65207 2.65517 12.3671C5.12787 15.0821 9.29772 15.3745 12.1251 13.0311L16.8689 17.7499L17.7501 16.8686ZM2.12512 7.74987C2.12512 4.64327 4.64352 2.12487 7.75012 2.12487C10.8567 2.12487 13.3751 4.64327 13.3751 7.74987C13.3751 10.8565 10.8567 13.3749 7.75012 13.3749C4.64352 13.3749 2.12512 10.8565 2.12512 7.74987Z" fill="#525252"/>
</svg>
