<svg width="16" height="16" viewBox="0 0 16 16" fill="none" xmlns="http://www.w3.org/2000/svg">
<path d="M6.33325 9.66683V8.91683H5.58325V9.66683H6.33325ZM9.66658 6.3335V5.5835H8.91658V6.3335H9.66658ZM7.08325 13.3335V9.66683H5.58325V13.3335H7.08325ZM7.33325 13.5835C7.19518 13.5835 7.08325 13.4716 7.08325 13.3335H5.58325C5.58325 14.3 6.36675 15.0835 7.33325 15.0835V13.5835ZM13.3333 13.5835H7.33325V15.0835H13.3333V13.5835ZM13.5833 13.3335C13.5833 13.4716 13.4713 13.5835 13.3333 13.5835V15.0835C14.2997 15.0835 15.0833 14.3 15.0833 13.3335H13.5833ZM13.5833 7.3335V13.3335H15.0833V7.3335H13.5833ZM13.3333 7.0835C13.4713 7.0835 13.5833 7.19542 13.5833 7.3335H15.0833C15.0833 6.367 14.2997 5.5835 13.3333 5.5835V7.0835ZM9.66658 7.0835H13.3333V5.5835H9.66658V7.0835ZM8.91658 6.3335V8.66683H10.4166V6.3335H8.91658ZM8.91658 8.66683C8.91658 8.8049 8.80466 8.91683 8.66658 8.91683V10.4168C9.63308 10.4168 10.4166 9.63333 10.4166 8.66683H8.91658ZM8.66658 8.91683H6.33325V10.4168H8.66658V8.91683Z" fill="#161616"/>
<rect x="1.66675" y="1.6665" width="8" height="8" rx="1" stroke="#161616" stroke-width="1.5"/>
</svg>
