<svg width="16" height="16" viewBox="0 0 16 16" fill="none" xmlns="http://www.w3.org/2000/svg">
<path fill-rule="evenodd" clip-rule="evenodd" d="M5.5001 8.99979L6.2051 9.70479L7.5001 8.41479V14.4998H8.5001V8.41479L9.7951 9.70479L10.5001 8.99979L8.0001 6.49979L5.5001 8.99979ZM11.7501 10.9998H11.5001V9.99979H11.7501C12.9927 10.0495 14.0404 9.08243 14.0901 7.83979C14.1398 6.59715 13.1727 5.54949 11.9301 5.49979H11.5001L11.4501 5.08979C11.2207 3.3486 9.73635 2.04706 7.9801 2.04706C6.22386 2.04706 4.73956 3.3486 4.5101 5.08979L4.5001 5.49979H4.0701C2.82746 5.54949 1.8604 6.59715 1.9101 7.83979C1.95981 9.08243 3.00746 10.0495 4.2501 9.99979H4.5001V10.9998H4.2501C2.58966 10.9893 1.20417 9.72878 1.03717 8.07672C0.870165 6.42467 1.97536 4.9124 3.6001 4.56979C4.04491 2.49521 5.87838 1.01318 8.0001 1.01318C10.1218 1.01318 11.9553 2.49521 12.4001 4.56979C14.0248 4.9124 15.13 6.42467 14.963 8.07672C14.796 9.72878 13.4105 10.9893 11.7501 10.9998Z" fill="white"/>
</svg>
